<svg xmlns="http://www.w3.org/2000/svg" xmlns:xlink="http://www.w3.org/1999/xlink" width="500" zoomAndPan="magnify" viewBox="0 0 375 374.999991" height="500" preserveAspectRatio="xMidYMid meet" version="1.0"><defs><clipPath id="86b2c412a2"><path d="M 40 43.664062 L 344 43.664062 L 344 323 L 40 323 Z M 40 43.664062 " clip-rule="nonzero"/></clipPath></defs><g clip-path="url(#86b2c412a2)"><path fill="#fdfbfd" d="M 198.265625 43.789062 C 200.742188 43.824219 203.21875 43.847656 205.699219 43.859375 C 209.335938 43.875 212.976562 43.929688 216.617188 43.988281 C 217.710938 43.984375 218.804688 43.984375 219.929688 43.984375 C 229.777344 44.21875 237.261719 47.371094 244.371094 54.230469 C 246.175781 56.148438 247.464844 57.640625 248.644531 60 C 249.695312 60.015625 250.746094 60.03125 251.828125 60.046875 C 255.75 60.109375 259.671875 60.195312 263.59375 60.285156 C 265.289062 60.320312 266.980469 60.351562 268.675781 60.375 C 271.117188 60.410156 273.558594 60.46875 276 60.53125 C 277.125 60.539062 277.125 60.539062 278.273438 60.550781 C 294.945312 61.050781 308.847656 80.953125 319.769531 91.90625 C 322.566406 94.710938 325.367188 97.507812 328.171875 100.308594 C 329.949219 102.085938 331.726562 103.867188 333.503906 105.644531 C 334.34375 106.484375 335.183594 107.320312 336.046875 108.183594 C 336.816406 108.957031 337.585938 109.730469 338.378906 110.523438 C 339.058594 111.203125 339.734375 111.882812 340.433594 112.585938 C 343.273438 115.675781 343.652344 118.570312 343.636719 122.742188 C 342.59375 127.484375 338.898438 130.582031 335.503906 133.855469 C 332.851562 136.507812 333.058594 137.171875 333.058594 140.804688 C 333.050781 141.808594 333.046875 142.8125 333.039062 143.84375 C 333.046875 145.5 333.046875 145.5 333.054688 147.191406 C 333.050781 148.351562 333.046875 149.511719 333.042969 150.707031 C 333.035156 153.234375 333.03125 155.757812 333.035156 158.285156 C 333.035156 162.277344 333.019531 166.269531 333.003906 170.265625 C 332.953125 181.621094 332.925781 192.976562 332.917969 204.332031 C 332.914062 211.269531 332.886719 218.210938 332.847656 225.148438 C 332.835938 227.800781 332.832031 230.449219 332.839844 233.097656 C 332.847656 236.800781 332.828125 240.5 332.804688 244.199219 C 332.816406 245.855469 332.816406 245.855469 332.832031 247.539062 C 332.820312 248.546875 332.808594 249.554688 332.792969 250.589844 C 332.792969 251.464844 332.792969 252.339844 332.792969 253.242188 C 332.246094 255.503906 332.246094 255.503906 330.304688 257.40625 C 326.582031 259.507812 322.648438 259.402344 318.46875 259.644531 C 276.410156 263.058594 236.746094 281.988281 206.300781 310.894531 C 204.863281 312.128906 203.414062 313.351562 201.957031 314.5625 C 198.710938 317.148438 198.710938 317.148438 197.003906 319.992188 C 195.445312 321.757812 195.445312 321.757812 192.601562 322.367188 C 186.976562 321.433594 184.464844 317.84375 180.71875 313.746094 C 166.835938 298.609375 166.835938 298.609375 148.40625 291.839844 C 138.617188 291.050781 130.355469 289.589844 121.613281 284.828125 C 120.617188 284.292969 119.617188 283.757812 118.589844 283.203125 C 112.773438 279.789062 108.90625 276.335938 104.648438 271.117188 C 94.402344 260.332031 76.234375 260.066406 62.101562 259.167969 C 61.085938 259.15625 60.074219 259.140625 59.027344 259.125 C 55.816406 258.667969 54.484375 257.707031 52.125 255.503906 C 51.597656 253.257812 51.597656 253.257812 51.613281 250.628906 C 51.609375 249.628906 51.605469 248.628906 51.601562 247.601562 C 51.621094 246.507812 51.636719 245.414062 51.65625 244.285156 C 51.65625 243.132812 51.65625 241.980469 51.65625 240.792969 C 51.660156 238.28125 51.675781 235.773438 51.699219 233.265625 C 51.734375 229.292969 51.738281 225.320312 51.734375 221.351562 C 51.726562 210.054688 51.769531 198.761719 51.839844 187.46875 C 51.878906 180.5625 51.882812 173.65625 51.867188 166.753906 C 51.867188 164.121094 51.882812 161.488281 51.914062 158.859375 C 51.953125 155.175781 51.949219 151.492188 51.933594 147.808594 C 51.957031 146.722656 51.984375 145.636719 52.007812 144.519531 C 51.933594 138.867188 51.445312 135.800781 47.320312 131.761719 C 46.648438 131.214844 45.976562 130.664062 45.285156 130.097656 C 42.175781 127.277344 41.367188 124.640625 40.660156 120.550781 C 41.304688 116.242188 41.792969 115.46875 44.589844 112.40625 C 45.28125 111.644531 45.972656 110.886719 46.6875 110.101562 C 50.117188 106.464844 53.605469 102.898438 57.144531 99.367188 C 57.90625 98.601562 58.671875 97.835938 59.457031 97.046875 C 61.0625 95.445312 62.667969 93.839844 64.273438 92.238281 C 66.710938 89.804688 69.140625 87.371094 71.570312 84.929688 C 73.140625 83.363281 74.710938 81.792969 76.28125 80.222656 C 76.996094 79.507812 77.710938 78.789062 78.445312 78.050781 C 95.039062 61.53125 95.039062 61.53125 103.507812 60.753906 C 105.429688 60.792969 105.429688 60.792969 107.394531 60.835938 C 108.808594 60.835938 110.222656 60.835938 111.679688 60.835938 C 113.898438 60.851562 116.117188 60.882812 118.339844 60.941406 C 127.171875 61.398438 127.171875 61.398438 135.027344 58.117188 C 137.03125 55.871094 137.03125 55.871094 138.546875 53.492188 C 141.453125 49.332031 146.175781 46.507812 151.085938 45.3125 C 166.5 42.726562 182.703125 43.542969 198.265625 43.789062 Z M 198.265625 43.789062 " fill-opacity="1" fill-rule="nonzero"/></g><path fill="#f46fa1" d="M 174.539062 52.136719 C 175.609375 52.128906 175.609375 52.128906 176.699219 52.125 C 180.46875 52.101562 184.238281 52.085938 188.007812 52.074219 C 191.878906 52.0625 195.746094 52.027344 199.617188 51.984375 C 202.617188 51.953125 205.617188 51.945312 208.613281 51.941406 C 210.726562 51.933594 212.84375 51.90625 214.957031 51.875 C 224.144531 51.898438 230.226562 52.851562 237.238281 59.1875 C 237.933594 60.015625 238.632812 60.84375 239.347656 61.695312 C 240.0625 62.527344 240.777344 63.355469 241.515625 64.210938 C 244.847656 68.726562 244.476562 73.292969 244.492188 78.664062 C 244.5 79.570312 244.507812 80.476562 244.515625 81.410156 C 244.535156 84.414062 244.550781 87.417969 244.558594 90.417969 C 244.566406 91.445312 244.570312 92.472656 244.574219 93.53125 C 244.597656 98.972656 244.613281 104.414062 244.621094 109.855469 C 244.632812 115.460938 244.671875 121.066406 244.714844 126.671875 C 244.742188 130.996094 244.75 135.316406 244.753906 139.636719 C 244.761719 141.703125 244.773438 143.769531 244.792969 145.835938 C 244.820312 148.734375 244.820312 151.636719 244.8125 154.535156 C 244.824219 155.378906 244.839844 156.222656 244.855469 157.089844 C 244.796875 163.367188 243.285156 168.675781 239.957031 174.042969 C 234.515625 179.074219 228.261719 180.339844 221.191406 181.925781 C 216.785156 183.132812 214.101562 185.082031 211.636719 188.902344 C 210.269531 192.371094 210.226562 195.503906 210.070312 199.226562 C 209.996094 200.789062 209.917969 202.347656 209.839844 203.90625 C 209.730469 206.339844 209.625 208.773438 209.527344 211.207031 C 209.09375 221.285156 208.175781 230.578125 205.214844 240.296875 C 204.902344 241.351562 204.585938 242.40625 204.265625 243.492188 C 200.019531 257.191406 189.953125 269.234375 177.449219 276.226562 C 167.695312 281.351562 159.984375 282.886719 149.097656 282.996094 C 148.074219 283.027344 147.046875 283.058594 145.992188 283.089844 C 135.761719 283.183594 127.777344 280.210938 119.644531 273.96875 C 118.222656 272.890625 118.222656 272.890625 116.773438 271.796875 C 115.863281 271.078125 114.953125 270.363281 114.011719 269.625 C 113.03125 268.867188 112.046875 268.109375 111.035156 267.332031 C 108.609375 265.296875 107.558594 263.847656 106.414062 260.933594 C 106.972656 261.226562 107.53125 261.515625 108.109375 261.816406 C 119.773438 267.5 131.972656 269.589844 144.753906 266.230469 C 156.289062 262.175781 162.398438 253.636719 168.097656 243.214844 C 173.089844 227.710938 174.996094 204.636719 168.300781 189.25 C 164.457031 184.449219 161.339844 183.019531 155.40625 181.714844 C 149.078125 180.058594 143.988281 178.414062 140.070312 172.957031 C 137.058594 167.027344 136.339844 162.421875 136.390625 155.820312 C 136.386719 154.898438 136.382812 153.976562 136.375 153.023438 C 136.359375 149.992188 136.371094 146.964844 136.382812 143.933594 C 136.378906 141.816406 136.375 139.699219 136.371094 137.582031 C 136.367188 133.15625 136.375 128.730469 136.390625 124.300781 C 136.40625 118.636719 136.398438 112.96875 136.378906 107.300781 C 136.367188 102.933594 136.371094 98.566406 136.378906 94.199219 C 136.378906 92.109375 136.378906 90.019531 136.371094 87.933594 C 136.363281 85.011719 136.375 82.089844 136.390625 79.167969 C 136.386719 78.308594 136.378906 77.449219 136.371094 76.566406 C 136.445312 70.335938 137.855469 65.949219 141.898438 61.035156 C 142.527344 60.425781 143.15625 59.8125 143.804688 59.183594 C 144.742188 58.253906 144.742188 58.253906 145.699219 57.300781 C 153.597656 50.707031 164.855469 52.195312 174.539062 52.136719 Z M 174.539062 52.136719 " fill-opacity="1" fill-rule="nonzero"/><path fill="#a08bdc" d="M 331.160156 136.027344 C 331.519531 136.027344 331.875 136.027344 332.246094 136.027344 C 332.347656 151.550781 332.421875 167.070312 332.472656 182.59375 C 332.492188 189.800781 332.523438 197.003906 332.574219 204.210938 C 332.621094 211.164062 332.648438 218.113281 332.65625 225.066406 C 332.664062 227.722656 332.679688 230.375 332.703125 233.03125 C 332.738281 236.742188 332.742188 240.453125 332.738281 244.167969 C 332.753906 245.273438 332.769531 246.378906 332.785156 247.515625 C 332.78125 248.527344 332.773438 249.535156 332.769531 250.574219 C 332.773438 251.453125 332.777344 252.332031 332.78125 253.238281 C 332.246094 255.503906 332.246094 255.503906 330.304688 257.40625 C 326.582031 259.507812 322.648438 259.402344 318.46875 259.644531 C 276.410156 263.058594 236.746094 281.988281 206.300781 310.894531 C 204.863281 312.128906 203.414062 313.351562 201.957031 314.5625 C 198.710938 317.148438 198.710938 317.148438 197.003906 319.992188 C 195.445312 321.757812 195.445312 321.757812 192.601562 322.367188 C 186.976562 321.433594 184.464844 317.84375 180.71875 313.746094 C 169.171875 301.617188 169.171875 301.617188 155.269531 292.433594 C 155.269531 291.714844 155.269531 291 155.269531 290.261719 C 156.285156 290.113281 157.296875 289.964844 158.335938 289.8125 C 177.023438 286.65625 191.375 277.386719 202.90625 262.359375 C 205.84375 257.835938 207.945312 253.109375 209.898438 248.105469 C 210.160156 247.4375 210.425781 246.769531 210.695312 246.078125 C 215.476562 232.871094 215.535156 218.457031 216.015625 204.578125 C 216.085938 203.238281 216.15625 201.898438 216.230469 200.519531 C 216.277344 199.316406 216.328125 198.117188 216.378906 196.878906 C 217.414062 192.515625 219.082031 190.90625 222.585938 188.164062 C 233.699219 183.78125 246.023438 184.601562 257.738281 184.90625 C 261.160156 184.992188 264.585938 185.058594 268.007812 185.109375 C 269.152344 185.148438 269.152344 185.148438 270.320312 185.191406 C 278.339844 185.308594 284.773438 183.03125 290.632812 177.445312 C 291.546875 176.582031 292.460938 175.714844 293.402344 174.824219 C 294.398438 173.851562 295.390625 172.875 296.417969 171.871094 C 296.964844 171.335938 297.515625 170.800781 298.082031 170.25 C 301.730469 166.6875 305.34375 163.097656 308.9375 159.484375 C 310.8125 157.605469 312.691406 155.734375 314.570312 153.859375 C 320.332031 148.097656 325.910156 142.273438 331.160156 136.027344 Z M 331.160156 136.027344 " fill-opacity="1" fill-rule="nonzero"/><path fill="#a18cdc" d="M 52.125 136.027344 C 53.34375 137.066406 54.5625 138.105469 55.777344 139.148438 C 56.457031 139.726562 57.132812 140.304688 57.832031 140.902344 C 59.992188 142.777344 62.050781 144.726562 64.070312 146.753906 C 65.042969 147.722656 65.042969 147.722656 66.039062 148.714844 C 68.046875 150.84375 69.960938 153.015625 71.875 155.230469 C 76.320312 160.339844 81.015625 165.167969 85.785156 169.96875 C 86.617188 170.828125 87.453125 171.683594 88.3125 172.566406 C 89.136719 173.394531 89.957031 174.222656 90.804688 175.078125 C 91.535156 175.820312 92.265625 176.5625 93.019531 177.324219 C 99.464844 182.785156 104.097656 184.449219 112.351562 184.289062 C 114.132812 184.300781 115.914062 184.3125 117.695312 184.320312 C 120.457031 184.3125 123.214844 184.292969 125.976562 184.269531 C 137.894531 184.199219 150.058594 184.21875 160.699219 190.335938 C 167.753906 201.714844 166.476562 219.53125 163.875 232.273438 C 161.367188 242.671875 156.6875 251.960938 147.382812 257.789062 C 139.367188 261.925781 129.976562 261.988281 121.273438 260.121094 C 115.664062 258.21875 111.894531 255.507812 107.636719 251.429688 C 103.164062 248.210938 100.9375 248.523438 95.554688 248.988281 C 95.25 255.015625 95.359375 258 98.8125 263.105469 C 98.453125 263.824219 98.097656 264.539062 97.726562 265.277344 C 96.605469 265.039062 96.605469 265.039062 95.460938 264.796875 C 77.398438 260.777344 77.398438 260.777344 59.027344 259.125 C 55.816406 258.667969 54.484375 257.710938 52.125 255.503906 C 51.59375 253.238281 51.59375 253.238281 51.605469 250.574219 C 51.597656 249.566406 51.59375 248.554688 51.585938 247.515625 C 51.601562 246.410156 51.617188 245.304688 51.632812 244.167969 C 51.632812 243 51.632812 241.835938 51.632812 240.632812 C 51.636719 236.773438 51.667969 232.910156 51.703125 229.050781 C 51.710938 226.375 51.71875 223.703125 51.722656 221.027344 C 51.738281 213.984375 51.78125 206.941406 51.828125 199.894531 C 51.871094 192.710938 51.894531 185.523438 51.914062 178.339844 C 51.960938 164.234375 52.035156 150.132812 52.125 136.027344 Z M 52.125 136.027344 " fill-opacity="1" fill-rule="nonzero"/><path fill="#ffc1f5" d="M 254.074219 69.773438 C 258.484375 69.679688 262.894531 69.621094 267.304688 69.570312 C 269.179688 69.53125 269.179688 69.53125 271.089844 69.488281 C 272.902344 69.472656 272.902344 69.472656 274.75 69.457031 C 275.855469 69.4375 276.964844 69.421875 278.109375 69.40625 C 284.375 70.148438 288.066406 74.199219 292.332031 78.546875 C 293.121094 79.347656 293.121094 79.347656 293.925781 80.160156 C 295.597656 81.851562 297.261719 83.550781 298.925781 85.25 C 308.375 94.890625 308.375 94.890625 318.363281 103.957031 C 321.484375 106.628906 324.472656 109.421875 327.429688 112.269531 C 328.019531 112.8125 328.609375 113.351562 329.21875 113.910156 C 330.894531 115.535156 330.894531 115.535156 333.332031 118.652344 C 333.152344 123.65625 330.925781 125.933594 327.472656 129.367188 C 326.976562 129.863281 326.484375 130.359375 325.972656 130.871094 C 324.34375 132.503906 322.699219 134.121094 321.054688 135.738281 C 319.914062 136.875 318.777344 138.007812 317.640625 139.140625 C 315.261719 141.515625 312.875 143.882812 310.480469 146.242188 C 307.410156 149.269531 304.351562 152.308594 301.296875 155.355469 C 298.386719 158.253906 295.46875 161.152344 292.554688 164.046875 C 291.996094 164.601562 291.4375 165.15625 290.863281 165.726562 C 289.289062 167.289062 287.710938 168.847656 286.128906 170.40625 C 285.230469 171.292969 284.332031 172.183594 283.40625 173.097656 C 279.710938 176.523438 277.371094 176.34375 272.421875 176.320312 C 271.105469 176.316406 269.789062 176.316406 268.433594 176.3125 C 267.054688 176.300781 265.671875 176.292969 264.25 176.285156 C 262.863281 176.277344 261.476562 176.273438 260.042969 176.269531 C 256.605469 176.253906 253.167969 176.238281 249.730469 176.214844 C 249.957031 175.527344 250.1875 174.835938 250.421875 174.128906 C 253.605469 163.273438 253.503906 152.683594 253.542969 141.476562 C 253.5625 139.402344 253.582031 137.324219 253.601562 135.25 C 253.652344 129.828125 253.6875 124.40625 253.714844 118.988281 C 253.746094 113.4375 253.796875 107.890625 253.847656 102.339844 C 253.9375 91.484375 254.011719 80.628906 254.074219 69.773438 Z M 254.074219 69.773438 " fill-opacity="1" fill-rule="nonzero"/><path fill="#ffc1f5" d="M 107.984375 69.667969 C 109.152344 69.671875 110.320312 69.675781 111.523438 69.679688 C 112.75 69.6875 113.972656 69.695312 115.234375 69.707031 C 117.085938 69.714844 117.085938 69.714844 118.972656 69.722656 C 122.023438 69.734375 125.074219 69.753906 128.128906 69.773438 C 128.121094 70.949219 128.113281 72.121094 128.105469 73.328125 C 128.039062 84.417969 127.992188 95.507812 127.960938 106.597656 C 127.941406 112.296875 127.917969 118 127.882812 123.699219 C 127.847656 129.207031 127.828125 134.714844 127.820312 140.21875 C 127.8125 142.316406 127.800781 144.410156 127.785156 146.503906 C 127.449219 161.6875 127.449219 161.6875 131.386719 176.214844 C 127.222656 176.429688 123.066406 176.570312 118.898438 176.691406 C 117.144531 176.785156 117.144531 176.785156 115.355469 176.882812 C 114.207031 176.910156 113.058594 176.933594 111.875 176.957031 C 110.828125 176.996094 109.785156 177.039062 108.707031 177.078125 C 103.460938 175.738281 100.453125 172.332031 96.640625 168.613281 C 95.808594 167.816406 94.972656 167.023438 94.113281 166.203125 C 88.15625 160.484375 82.304688 154.660156 76.445312 148.847656 C 74.292969 146.714844 72.132812 144.59375 69.964844 142.476562 C 66.828125 139.414062 63.714844 136.328125 60.605469 133.238281 C 59.628906 132.289062 58.652344 131.34375 57.648438 130.371094 C 56.761719 129.480469 55.878906 128.59375 54.964844 127.679688 C 54.179688 126.902344 53.394531 126.128906 52.582031 125.328125 C 51.039062 122.996094 51.039062 122.996094 51.226562 120.128906 C 52.339844 116.957031 53.804688 115.375 56.203125 113.023438 C 57.042969 112.195312 57.878906 111.363281 58.746094 110.507812 C 59.628906 109.65625 60.511719 108.804688 61.421875 107.925781 C 62.277344 107.082031 63.132812 106.234375 64.011719 105.367188 C 67.917969 101.535156 71.867188 97.796875 76.015625 94.230469 C 81.121094 89.824219 85.808594 85.03125 90.535156 80.226562 C 92.257812 78.476562 93.988281 76.722656 95.71875 74.976562 C 96.46875 74.210938 97.222656 73.445312 97.996094 72.65625 C 101.304688 69.535156 103.542969 69.644531 107.984375 69.667969 Z M 107.984375 69.667969 " fill-opacity="1" fill-rule="nonzero"/><path fill="#544191" d="M 332.246094 281.570312 C 332.714844 284.519531 332.714844 284.519531 332.722656 288.019531 C 332.753906 289.75 332.753906 289.75 332.785156 291.511719 C 332.246094 294.605469 332.246094 294.605469 330.449219 296.398438 C 327.230469 298.25 325.058594 298.28125 321.355469 298.304688 C 319.410156 298.335938 319.410156 298.335938 317.429688 298.367188 C 316.046875 298.382812 314.667969 298.394531 313.246094 298.40625 C 282.816406 299.089844 255.027344 305.210938 227.8125 319.042969 C 227.03125 319.429688 226.25 319.816406 225.445312 320.210938 C 218.957031 323.628906 215.855469 328.011719 213.085938 334.792969 C 210.625 339.898438 206.765625 342.796875 201.957031 345.652344 C 195.292969 347.875 187.300781 347.941406 180.855469 344.972656 C 176.082031 342.132812 172.574219 338.617188 170.632812 333.386719 C 166.6875 323.039062 158.253906 319.699219 148.757812 315.242188 C 147.671875 314.71875 147.671875 314.71875 146.566406 314.183594 C 122.632812 302.820312 96.535156 298.902344 70.300781 298.328125 C 55.445312 297.925781 55.445312 297.925781 52.125 294.605469 C 52.019531 292.84375 51.984375 291.074219 51.992188 289.308594 C 51.988281 288.347656 51.984375 287.386719 51.984375 286.398438 C 52.125 283.742188 52.125 283.742188 53.210938 280.484375 C 70.769531 279.910156 87.136719 280.726562 104.242188 284.828125 C 105.191406 285.054688 106.144531 285.28125 107.125 285.515625 C 139.726562 293.550781 165.523438 309.140625 191.101562 330.445312 C 195.378906 329 197.890625 327.234375 201.074219 324.066406 C 208.941406 316.796875 217.855469 311.109375 226.929688 305.464844 C 227.9375 304.835938 227.9375 304.835938 228.96875 304.195312 C 249.328125 291.8125 309.78125 266.589844 332.246094 281.570312 Z M 332.246094 281.570312 " fill-opacity="1" fill-rule="nonzero"/><path fill="#564392" d="M 331.160156 136.027344 C 331.519531 136.027344 331.875 136.027344 332.246094 136.027344 C 332.347656 151.550781 332.421875 167.070312 332.472656 182.59375 C 332.492188 189.800781 332.523438 197.003906 332.574219 204.210938 C 332.621094 211.164062 332.648438 218.113281 332.65625 225.066406 C 332.664062 227.722656 332.679688 230.375 332.703125 233.03125 C 332.738281 236.742188 332.742188 240.453125 332.738281 244.167969 C 332.753906 245.273438 332.769531 246.378906 332.785156 247.515625 C 332.78125 248.527344 332.773438 249.535156 332.769531 250.574219 C 332.773438 251.453125 332.777344 252.332031 332.78125 253.238281 C 332.246094 255.503906 332.246094 255.503906 330.304688 257.40625 C 326.582031 259.507812 322.648438 259.402344 318.46875 259.644531 C 276.410156 263.058594 236.746094 281.988281 206.300781 310.894531 C 204.863281 312.128906 203.414062 313.351562 201.957031 314.5625 C 198.710938 317.148438 198.710938 317.148438 197.003906 319.992188 C 195.445312 321.757812 195.445312 321.757812 192.601562 322.367188 C 186.976562 321.433594 184.464844 317.84375 180.71875 313.746094 C 169.171875 301.617188 169.171875 301.617188 155.269531 292.433594 C 155.269531 291.714844 155.269531 291 155.269531 290.261719 C 167.921875 286.742188 167.921875 286.742188 173.667969 289.777344 C 179.472656 294.90625 184.003906 300.933594 187.84375 307.636719 C 188.515625 308.804688 189.1875 309.96875 189.878906 311.167969 C 191.132812 314.238281 191.390625 316.304688 191.101562 319.585938 C 191.816406 319.585938 192.535156 319.585938 193.273438 319.585938 C 193.316406 318.578125 193.363281 317.570312 193.40625 316.53125 C 195.242188 304.390625 204.316406 294.746094 213.765625 287.644531 C 232.773438 273.984375 253.621094 263.128906 274.472656 252.613281 C 290.832031 244.292969 305.910156 236.234375 312.988281 218.375 C 317.105469 205.613281 318.480469 193.230469 318.355469 179.847656 C 318.335938 177.632812 318.332031 175.417969 318.332031 173.199219 C 318.304688 167.171875 318.261719 161.296875 317.367188 155.328125 C 317.046875 151.234375 317.046875 151.234375 318.375 148.882812 C 319.363281 148.097656 319.363281 148.097656 320.371094 147.296875 C 323.945312 144.234375 326.910156 141.058594 329.894531 137.425781 C 330.3125 136.964844 330.730469 136.503906 331.160156 136.027344 Z M 331.160156 136.027344 " fill-opacity="1" fill-rule="nonzero"/><path fill="#554292" d="M 52.125 136.027344 C 52.632812 136.464844 53.136719 136.898438 53.660156 137.347656 C 54.667969 138.214844 54.667969 138.214844 55.695312 139.101562 C 56.359375 139.671875 57.019531 140.238281 57.703125 140.828125 C 59.03125 141.953125 60.371094 143.0625 61.730469 144.15625 C 64.394531 146.328125 66 147.996094 66.769531 151.40625 C 66.941406 154.234375 66.890625 156.984375 66.761719 159.816406 C 66.746094 160.855469 66.730469 161.890625 66.710938 162.960938 C 66.652344 166.269531 66.550781 169.578125 66.445312 172.890625 C 65.8125 195.644531 65.59375 218.359375 82.335938 236.148438 C 87.378906 240.367188 93.105469 243.585938 98.8125 246.8125 C 98.453125 247.53125 98.097656 248.25 97.726562 248.988281 C 97.011719 248.988281 96.292969 248.988281 95.554688 248.988281 C 95.25 255.015625 95.359375 258 98.8125 263.105469 C 98.453125 263.824219 98.097656 264.539062 97.726562 265.277344 C 96.605469 265.039062 96.605469 265.039062 95.460938 264.796875 C 77.398438 260.777344 77.398438 260.777344 59.027344 259.125 C 55.816406 258.667969 54.484375 257.710938 52.125 255.503906 C 51.59375 253.238281 51.59375 253.238281 51.605469 250.574219 C 51.597656 249.566406 51.59375 248.554688 51.585938 247.515625 C 51.601562 246.410156 51.617188 245.304688 51.632812 244.167969 C 51.632812 243 51.632812 241.835938 51.632812 240.632812 C 51.636719 236.773438 51.667969 232.910156 51.703125 229.050781 C 51.710938 226.375 51.71875 223.703125 51.722656 221.027344 C 51.738281 213.984375 51.78125 206.941406 51.828125 199.894531 C 51.871094 192.710938 51.894531 185.523438 51.914062 178.339844 C 51.960938 164.234375 52.035156 150.132812 52.125 136.027344 Z M 52.125 136.027344 " fill-opacity="1" fill-rule="nonzero"/><path fill="#fef1f6" d="M 166.128906 95.839844 C 166.46875 98.351562 166.46875 98.351562 166.128906 101.273438 C 163.550781 102.96875 163.550781 102.96875 160.699219 104.53125 C 159.257812 106.777344 159.257812 106.777344 158.527344 108.875 C 161.035156 108.875 163.542969 108.875 166.128906 108.875 C 166.128906 113.175781 166.128906 117.476562 166.128906 121.910156 C 161.113281 121.910156 156.097656 121.910156 150.929688 121.910156 C 150.507812 106.515625 150.507812 106.515625 155.679688 100.390625 C 159.324219 97.347656 161.355469 95.839844 166.128906 95.839844 Z M 166.128906 95.839844 " fill-opacity="1" fill-rule="nonzero"/><path fill="#fef8fb" d="M 216.074219 95.839844 C 222.011719 97.121094 225.144531 98.554688 229.101562 103.445312 C 231.175781 109.195312 230.246094 115.929688 230.1875 121.910156 C 225.527344 121.910156 220.871094 121.910156 216.074219 121.910156 C 216.074219 117.609375 216.074219 113.304688 216.074219 108.875 C 218.582031 108.875 221.089844 108.875 223.671875 108.875 C 221.632812 104.996094 220.230469 102.851562 216.074219 101.273438 C 216.074219 99.480469 216.074219 97.6875 216.074219 95.839844 Z M 216.074219 95.839844 " fill-opacity="1" fill-rule="nonzero"/></svg>