<?xml version="1.0" encoding="UTF-8"?>
<svg id="Layer_2" data-name="Layer 2" xmlns="http://www.w3.org/2000/svg" viewBox="0 0 250 242.62">
  <defs>
    <style>
      .cls-1 {
        fill: #ffba42;
      }

      .cls-2 {
        fill: #013c58;
      }
    </style>
  </defs>
  <g id="Layer_1-2" data-name="Layer 1">
    <g>
      <path class="cls-1" d="M47.47,94.66v.45s0-.06.02-.08c0-.12-.02-.24-.02-.36Z"/>
      <path class="cls-2" d="M106.34,218.82v23.81l-4.45-2.62-4.85-2.85-35.99-21.17-2.17-1.28-23.69-13.93-20.63-12.13-.49-.29c-8.44-5.17-14.08-14.48-14.08-25.11V0l23.6,13.63.45.26c6.67,3.96,11.14,11.23,11.14,19.55v118.45c0,7.97,4.1,14.99,10.32,19.04.73.49,1.5.93,2.3,1.32l44.5,25.55,5,2.87c5.48,4.15,9.03,10.73,9.03,18.14Z"/>
      <path class="cls-2" d="M47.42,140.89c0,.61.03,1.21.06,1.81-.03.11-.05.22-.06.33v6.7c.95,5.54,4.22,10.29,8.79,13.2l1.56.9,3.25,1.87,2.41,1.38,42.87,24.69v-16.54c0-3.1-.48-6.09-1.37-8.88-2.16-6.84-6.75-12.6-12.76-16.27l-1.29-.74-29.45-16.98-14.01-8.08v16.61Z"/>
      <path class="cls-2" d="M26.18,31.97c0,.61.03,1.21.06,1.81-.03.11-.05.22-.06.33v6.7c.95,5.54,4.22,10.29,8.79,13.2l1.56.9,3.25,1.87,2.41,1.38,42.87,24.69v-16.54c0-3.1-.48-6.09-1.37-8.88-2.16-6.84-6.75-12.6-12.76-16.27l-1.29-.74-29.45-16.98-14.01-8.08v16.61Z"/>
      <path class="cls-2" d="M66.65,121.22l-10.85-6.26c.13.1.28.19.41.28l1.56.9,3.25,1.87,2.41,1.38,10.85,6.25,6.48,3.73-6.56-3.79-7.55-4.35h0Z"/>
      <path class="cls-2" d="M47.42,95.35v6.7c0,.07.03.14.04.21v-7.16c-.02.08-.03.16-.04.24Z"/>
      <path class="cls-1" d="M47.42,76.59v16.61c0,.49.02.97.04,1.45,0,.12,0,.24.02.36,0,.03-.02.06-.02.08v7.16c.96,5.29,4.04,9.83,8.34,12.71l10.85,6.26h0s7.55,4.36,7.55,4.36l6.56,3.79,33.94,19.59h0s10.32,5.96,10.32,5.96v-16.54c0-3.1-.48-6.09-1.37-8.88-2.16-6.84-6.75-12.6-12.76-16.27l-1.29-.74-16.72-9.64c-.24-.16-.47-.31-.71-.45l-1.29-.74-29.45-16.98-14.01-8.08Z"/>
      <path class="cls-2" d="M74.2,125.59s.05.04.08.06c.22.15.44.29.66.44l1.56.9,3.25,1.87,2.41,1.38,42.87,24.69-10.32-5.95h0s-33.94-19.59-33.94-19.59l-6.56-3.79Z"/>
      <path class="cls-1" d="M202.53,94.66v.45s0-.06-.02-.08c0-.12.02-.24.02-.36Z"/>
      <path class="cls-2" d="M143.66,218.82v23.81l4.45-2.62,4.85-2.85,35.99-21.17,2.17-1.28,23.69-13.93,20.63-12.13.49-.29c8.44-5.17,14.08-14.48,14.08-25.11V0l-23.6,13.63-.45.26c-6.67,3.96-11.14,11.23-11.14,19.55v118.45c0,7.97-4.1,14.99-10.32,19.04-.73.49-1.5.93-2.3,1.32l-44.5,25.55-5,2.87c-5.48,4.15-9.03,10.73-9.03,18.14Z"/>
      <path class="cls-2" d="M202.58,140.89c0,.61-.03,1.21-.06,1.81.03.11.05.22.06.33v6.7c-.95,5.54-4.22,10.29-8.79,13.2l-1.56.9-3.25,1.87-2.41,1.38-42.87,24.69v-16.54c0-3.1.48-6.09,1.37-8.88,2.16-6.84,6.75-12.6,12.76-16.27l1.29-.74,29.45-16.98,14.01-8.08v16.61Z"/>
      <path class="cls-2" d="M223.82,31.97c0,.61-.03,1.21-.06,1.81.03.11.05.22.06.33v6.7c-.95,5.54-4.22,10.29-8.79,13.2l-1.56.9-3.25,1.87-2.41,1.38-42.87,24.69v-16.54c0-3.1.48-6.09,1.37-8.88,2.16-6.84,6.75-12.6,12.76-16.27l1.29-.74,29.45-16.98,14.01-8.08v16.61Z"/>
      <path class="cls-2" d="M183.35,121.22l10.85-6.26c-.13.1-.28.19-.41.28l-1.56.9-3.25,1.87-2.41,1.38-10.85,6.25-6.48,3.73,6.56-3.79,7.55-4.35h0Z"/>
      <path class="cls-2" d="M202.58,95.35v6.7c0,.07-.03.14-.04.21v-7.16c.02.08.03.16.04.24Z"/>
      <path class="cls-1" d="M202.58,76.59v16.61c0,.49-.02.97-.04,1.45,0,.12,0,.24-.02.36,0,.03.02.06.02.08v7.16c-.96,5.29-4.04,9.83-8.34,12.71l-10.85,6.26h0s-7.55,4.36-7.55,4.36l-6.56,3.79-33.94,19.59h0s-10.32,5.96-10.32,5.96v-16.54c0-3.1.48-6.09,1.37-8.88,2.16-6.84,6.75-12.6,12.76-16.27l1.29-.74,16.72-9.64c.24-.16.47-.31.71-.45l1.29-.74,29.45-16.98,14.01-8.08Z"/>
      <path class="cls-2" d="M175.8,125.59s-.05.04-.08.06c-.22.15-.44.29-.66.44l-1.56.9-3.25,1.87-2.41,1.38-42.87,24.69,10.32-5.95h0s33.94-19.59,33.94-19.59l6.56-3.79Z"/>
    </g>
  </g>
</svg>