<?xml version="1.0" encoding="UTF-8"?>
<svg id="Layer_2" data-name="Layer 2" xmlns="http://www.w3.org/2000/svg" viewBox="0 0 500 376.78">
  <defs>
    <style>
      .cls-1 {
        fill: #00537a;
      }

      .cls-2 {
        fill: #ffba42;
      }
    </style>
  </defs>
  <g id="Layer_1-2" data-name="Layer 1">
    <g>
      <path class="cls-2" d="M216.29,376.78h-104.94c-11.26,0-21.76-6.06-27.39-15.82L13.49,238.9c-17.98-31.16-17.98-69.87,0-101.02L83.96,15.83C89.59,6.06,100.08,0,111.35,0h107.1c11.43,0,21.67,5.91,27.38,15.81,5.72,9.9,5.72,21.72,0,31.62l-82.47,142.84,80.31,139.09c5.71,9.9,5.71,21.72,0,31.62-5.71,9.9-15.95,15.81-27.38,15.81ZM111.35,27.3c-1.54,0-2.97.83-3.74,2.16l-70.48,122.07c-13.12,22.73-13.12,50.98,0,73.72l70.47,122.07c.77,1.33,2.2,2.16,3.74,2.16h104.94c2.17,0,3.28-1.35,3.74-2.16.47-.81,1.09-2.44,0-4.32l-88.2-152.75L222.19,33.78c1.09-1.88.47-3.51,0-4.32s-1.57-2.16-3.74-2.16h-107.1Z"/>
      <path class="cls-1" d="M415.3,281.47h-106.32c-9.66,0-18.31-4.99-23.14-13.36-4.83-8.37-4.83-18.35,0-26.72l57.33-99.3-58.9-102.02c-4.83-8.36-4.83-18.35,0-26.72,4.83-8.36,13.48-13.36,23.14-13.36h107.89c9.52,0,18.39,5.13,23.15,13.38l51.25,88.76c13.74,23.81,13.74,53.38,0,77.19l-51.25,88.77c-4.76,8.25-13.63,13.37-23.15,13.37ZM309.98,254.17h104.98l51.09-88.49c8.88-15.38,8.88-34.5,0-49.89l-51.09-88.49h-106.55l66.28,114.79-64.71,112.08Z"/>
    </g>
  </g>
</svg>